<?xml-stylesheet href="defaultstyles.css" type="text/css"?>
<svg xmlns="http://www.w3.org/2000/svg" xmlns:d="http://www.mathworks.com/blockgraphics" xmlns:xlink="http://www.w3.org/1999/xlink" version="1.1" id="svg_3" width="390" height="1056" d:options="PreserveAspect:On;ScalingOnResizeMax:2.0;Rotate:Off;Resize:FitToBlock">
	<defs>
		<style>
			.font-size-default {
				font-size:60px;}
			.font-size-extra-small {
				font-size:42px;}
					</style>
	</defs>
	<g id="layer_4" title="layer_0">
		<rect id="rect_53" class="rect" x="120" y="28" width="150" height="1000" rx="0" ry="0"/>
		<line id="line_71" class="line" x1="0" y1="48" x2="120" y2="48"/>
		<line id="line_90" class="line" x1="0" y1="108" x2="120" y2="108"/>
		<line id="line_104" class="line" x1="0" y1="168" x2="120" y2="168"/>
		<line id="line_119" class="line" x1="0" y1="228" x2="120" y2="228"/>
		<line id="line_132" class="line" x1="0" y1="288" x2="120" y2="288"/>
		<line id="line_149" class="line" x1="0" y1="348" x2="120" y2="348"/>
		<line id="line_175" class="line" x1="0" y1="408" x2="120" y2="408"/>
		<line id="line_191" class="line" x1="0" y1="468" x2="120" y2="468"/>
		<line id="line_211" class="line" x1="0" y1="528" x2="120" y2="528"/>
		<line id="line_230" class="line" x1="0" y1="588" x2="120" y2="588"/>
		<line id="line_245" class="line" x1="0" y1="648" x2="120" y2="648"/>
		<line id="line_264" class="line" x1="0" y1="708" x2="120" y2="708"/>
		<line id="line_281" class="line" x1="0" y1="768" x2="120" y2="768"/>
		<line id="line_299" class="line" x1="0" y1="828" x2="120" y2="828"/>
		<line id="line_316" class="line" x1="0" y1="888" x2="120" y2="888"/>
		<line id="line_333" class="line" x1="0" y1="948" x2="120" y2="948"/>
		<line id="line_347" class="line" x1="0" y1="1008" x2="120" y2="1008"/>
		<line id="line_368" class="line" x1="390" y1="1008" x2="270" y2="1008"/>
		<line id="line_390" class="line" x1="390" y1="888" x2="270" y2="888"/>
		<line id="line_417" class="line" x1="390" y1="768" x2="270" y2="768"/>
		<line id="line_435" class="line" x1="390" y1="648" x2="270" y2="648"/>
		<line id="line_455" class="line" x1="390" y1="528" x2="270" y2="528"/>
		<line id="line_470" class="line" x1="390" y1="408" x2="270" y2="408"/>
		<line id="line_484" class="line" x1="390" y1="288" x2="270" y2="288"/>
		<line id="line_497" class="line" x1="390" y1="168" x2="270" y2="168"/>
		<line id="line_516" class="line" x1="390" y1="48" x2="270" y2="48"/>
		<text id="text_517" class="text font-size-extra-small" x="30" y="4.85">
			<tspan dx="0" dy="37.97" x="30">a1</tspan>
		</text>
		<text id="text_518" class="text font-size-extra-small" x="30" y="64.21">
			<tspan dx="0" dy="37.97" x="30">a2</tspan>
		</text>
		<text id="text_519" class="text font-size-extra-small" x="30" y="126.95">
			<tspan dx="0" dy="37.97" x="30">a3</tspan>
		</text>
		<text id="text_520" class="text font-size-extra-small" x="32.11" y="187.37">
			<tspan dx="0" dy="37.97" x="32.11">a4</tspan>
		</text>
		<text id="text_521" class="text font-size-extra-small" x="32.11" y="247.37">
			<tspan dx="0" dy="37.97" x="32.11">a5</tspan>
		</text>
		<text id="text_522" class="text font-size-extra-small" x="32.11" y="305.26">
			<tspan dx="0" dy="37.97" x="32.11">a6</tspan>
		</text>
		<text id="text_523" class="text font-size-extra-small" x="30" y="367.37">
			<tspan dx="0" dy="37.97" x="30">a7</tspan>
		</text>
		<text id="text_524" class="text font-size-extra-small" x="32.11" y="425.27">
			<tspan dx="0" dy="37.97" x="32.11">a8</tspan>
		</text>
		<text id="text_525" class="text font-size-extra-small" x="32.11" y="484.21">
			<tspan dx="0" dy="37.97" x="32.11">b1</tspan>
		</text>
		<text id="text_526" class="text font-size-extra-small" x="32.11" y="546.31">
			<tspan dx="0" dy="37.97" x="32.11">b2</tspan>
		</text>
		<text id="text_527" class="text font-size-extra-small" x="32.11" y="608.42">
			<tspan dx="0" dy="37.97" x="32.11">b3</tspan>
		</text>
		<text id="text_528" class="text font-size-extra-small" x="32.11" y="668.42">
			<tspan dx="0" dy="37.97" x="32.11">b4</tspan>
		</text>
		<text id="text_529" class="text font-size-extra-small" x="32.11" y="726.31">
			<tspan dx="0" dy="37.97" x="32.11">b5</tspan>
		</text>
		<text id="text_530" class="text font-size-extra-small" x="32.11" y="786.32">
			<tspan dx="0" dy="37.97" x="32.11">b6</tspan>
		</text>
		<text id="text_531" class="text font-size-extra-small" x="32.11" y="848.49">
			<tspan dx="0" dy="37.97" x="32.11">b7</tspan>
		</text>
		<text id="text_532" class="text font-size-extra-small" x="30" y="909.09">
			<tspan dx="0" dy="37.97" x="30">b8</tspan>
		</text>
		<text id="text_533" class="text font-size-extra-small" x="23.96" y="965.66">
			<tspan dx="0" dy="37.97" x="23.96">Cin</tspan>
		</text>
		<text id="text_534" class="text font-size-extra-small" x="289.99" y="966.31">
			<tspan dx="0" dy="37.97" x="289.99">Cout</tspan>
		</text>
		<text id="text_535" class="text font-size-extra-small" x="314.53" y="7.69">
			<tspan dx="0" dy="37.97" x="314.53">s1</tspan>
		</text>
		<text id="text_536" class="text font-size-extra-small" x="314.53" y="127.02">
			<tspan dx="0" dy="37.97" x="314.53">s2</tspan>
		</text>
		<text id="text_537" class="text font-size-extra-small" x="314.53" y="247.44">
			<tspan dx="0" dy="37.97" x="314.53">s3</tspan>
		</text>
		<text id="text_538" class="text font-size-extra-small" x="312.82" y="367.44">
			<tspan dx="0" dy="37.97" x="312.82">s4</tspan>
		</text>
		<text id="text_539" class="text font-size-extra-small" x="312.31" y="488.04">
			<tspan dx="0" dy="37.97" x="312.31">s5</tspan>
		</text>
		<text id="text_540" class="text font-size-extra-small" x="312.31" y="608.49">
			<tspan dx="0" dy="37.97" x="312.31">s6</tspan>
		</text>
		<text id="text_541" class="text font-size-extra-small" x="314.53" y="726.38">
			<tspan dx="0" dy="37.97" x="314.53">s7</tspan>
		</text>
		<text id="text_542" class="text font-size-extra-small" x="314.53" y="846.31">
			<tspan dx="0" dy="37.97" x="314.53">s8</tspan>
		</text>
		<text id="text_543" class="text font-size-default" transform="matrix(0,1,-1,0,760.1900024414,370.200012207)" x="48.26" y="531.65">
			<tspan dx="0" dy="54.43" x="48.26" style="white-space: pre;">8 Bit Adder</tspan>
		</text>
	</g>
</svg>
